HIERARCHY
ROOT pelvis
{
  OFFSET 0 100 0
  CHANNELS 6 Xposition Yposition Zposition Zrotation Xrotation Yrotation
  JOINT pelvis_right_femur
  {
    OFFSET -10.78128 -3.44521 -0.5502486
    CHANNELS 3 Zrotation Xrotation Yrotation
    JOINT right_femur_tibia
    {
      OFFSET -0.8047443 -44.0398 -0.1307829
      CHANNELS 3 Zrotation Xrotation Yrotation
      JOINT right_tibia_foot
      {
        OFFSET 3.006224 -47.83518 -5
        CHANNELS 3 Zrotation Xrotation Yrotation
        End Site
        {
          OFFSET 0 -5 15
        }
      }
    }
  }
  JOINT pelvis_left_femur
  {
    OFFSET 10.78128 -3.44521 -0.5502486
    CHANNELS 3 Zrotation Xrotation Yrotation
    JOINT left_femur_tibia
    {
      OFFSET 0.8047443 -44.0398 -0.1307829
      CHANNELS 3 Zrotation Xrotation Yrotation
      JOINT left_tibia_foot
      {
        OFFSET -4.370144 -48.10324 -4.275266
        CHANNELS 3 Zrotation Xrotation Yrotation
        End Site
        {
          OFFSET 0 -5 15
        }
      }
    }
  }
  JOINT pelvis_spine1
  {
    OFFSET 0 6.468898 -3.129235
    CHANNELS 3 Zrotation Xrotation Yrotation
    JOINT spine1
    {
      OFFSET 0 23.15396 4.99043
      CHANNELS 3 Zrotation Xrotation Yrotation
      JOINT spine2
      {
        OFFSET 0 20.79997 -5.064912
        CHANNELS 3 Zrotation Xrotation Yrotation
        JOINT neck
        {
          OFFSET 0 14.38658 9.616178
          CHANNELS 3 Zrotation Xrotation Yrotation
          End Site
          {
            OFFSET 0 20 0
          }
        }
      }
      JOINT right_manubrium
      {
        OFFSET -5.722621 16.35077 3.967754
        CHANNELS 3 Zrotation Xrotation Yrotation
        JOINT right_clavicle
        {
          OFFSET -13.16364 1.694482 -4.693211
          CHANNELS 3 Zrotation Xrotation Yrotation
          JOINT right_humerus
          {
            OFFSET -28.5034 -0.3100689 -2.792744
            CHANNELS 3 Zrotation Xrotation Yrotation
            JOINT right_radius
            {
              OFFSET -25.15693 0.02248979 -1.271978
              CHANNELS 3 Zrotation Xrotation Yrotation
              End Site
              {
                OFFSET -15 0 0
              }
            }
          }
        }
      }
      JOINT left_manubrium
      {
        OFFSET 5.722621 16.35077 3.967754
        CHANNELS 3 Zrotation Xrotation Yrotation
        JOINT left_clavicle
        {
          OFFSET 13.16364 1.694482 -4.693211
          CHANNELS 3 Zrotation Xrotation Yrotation
          JOINT left_humerus
          {
            OFFSET 29.39168 -1.063119 -2.237045
            CHANNELS 3 Zrotation Xrotation Yrotation
            JOINT left_radius
            {
              OFFSET 24.59957 -0.9528479 0.9047498
              CHANNELS 3 Zrotation Xrotation Yrotation
              End Site
              {
                OFFSET 15 -0 -0
              }
            }
          }
        }
      }
    }
  }
}
MOTION
Frames: 23
Frame Time: 0.0416666666667
34.00703 101.4347 283.957 3.08331 -7.644978 1.194385 -1.087161 16.73294 6.829314 -0 39.59209 -0 6.195407 -10.04922 -2.233736 -4.560262 -18.63285 -8.37508 -0 23.67453 -0 -9.781607 -10.02745 18.10882 -1.888884 -1.371666 8.829182 -2.317352 8.526392 -2.584355 2.246405 21.28485 4.651494 1.811005 -16.33668 6.337389 -0.06829361 -20.35262 10.19414 83.58469 18.81855 -9.06673 -0 0 25.5393 -23.24659 9.91777 12.33185 5.052191 -13.04256 -3.37804 -93.91087 23.33091 24.70853 0 0 -9.958744 -5.676949 5.904522 17.9605
35.30413 102.2711 291.0651 3.717575 -8.417638 1.958435 -0.9315418 13.41797 5.983383 -0 48.63064 -0 5.903802 -8.131331 -3.194608 -6.089815 -14.14931 -9.823932 -0 24.54192 -0 -9.099639 -11.44169 17.76989 -2.29669 -1.225396 8.388182 -2.413595 8.621723 -2.598299 2.157443 21.64947 4.736056 1.604886 -16.26558 6.522878 0.442154 -19.38145 10.14476 84.5372 18.95986 -10.33703 -0 0 23.53267 -22.63173 9.983425 11.72336 4.833927 -13.35699 -3.535883 -92.69796 24.06192 23.11706 0 0 -9.756301 -5.647703 6.088093 17.95293
36.35038 103.5324 297.4067 3.685125 -9.299544 2.48991 -0.9774465 8.001925 4.981413 -0 55.16956 -0 5.766639 -7.535563 -4.808676 -6.734594 -8.980954 -10.46529 -0 24.31267 -0 -8.538842 -12.87803 17.52137 -2.234419 -0.4570591 7.545344 -2.249903 8.691821 -2.754241 1.980462 22.12849 4.934967 1.345267 -16.05856 6.792001 1.00589 -18.6845 10.29012 85.60119 19.29956 -11.46723 -0 0 21.63174 -21.84102 10.12239 11.12609 4.689308 -14.09769 -3.814269 -91.02366 24.7943 20.66304 0 0 -10.18116 -5.371226 6.362437 17.64703
37.1697 105.0636 303.5537 3.187362 -9.885777 3.162229 -0.9343348 1.878516 3.821774 -0 58.08086 -0 5.821083 -7.470465 -6.273554 -6.470206 -3.754167 -10.50779 -0 23.08775 -0 -8.257168 -14.01712 17.18968 -1.958629 0.2597921 6.26016 -1.857641 8.810656 -3.383273 1.834807 22.76299 5.149697 1.106783 -15.69107 7.11373 1.239735 -18.06376 10.20183 86.84912 19.66904 -12.59276 -0 0 20.2443 -21.01155 10.25252 10.69977 4.763762 -14.71924 -4.138383 -89.30513 25.45771 17.88118 0 0 -10.92711 -4.919821 6.721424 17.16155
38.15475 106.2252 309.3831 2.967679 -10.07311 4.413021 -0.4098193 -4.557034 3.065101 -0 56.41222 -0 5.289642 -7.514102 -7.127562 -6.198725 1.285468 -10.38885 -0 21.02456 -0 -8.181444 -15.05568 16.53924 -1.682384 0.4385704 4.802749 -1.429227 8.581814 -4.421852 1.735937 23.14247 5.470475 0.8880881 -15.53733 7.612027 0.8534 -17.18137 9.771837 88.0625 19.92289 -14.00999 -0 0 19.18053 -20.21568 10.27748 10.38163 5.068252 -15.22952 -4.500795 -87.72861 26.01824 14.79039 0 0 -12.26853 -4.472596 7.113876 16.58318
39.01103 106.7128 314.6891 2.796804 -9.857192 5.895362 -0.1031146 -10.46471 2.828701 -0 51.07414 -0 4.382106 -7.365926 -7.89569 -5.893877 5.480015 -10.44456 -0 18.53384 -0 -8.129931 -16.35401 15.79419 -1.596555 0.6883733 3.566048 -0.9319824 8.437572 -5.468893 1.943174 23.52815 5.543366 0.8532474 -15.29747 8.029898 0.1322248 -16.39475 9.205777 88.95934 20.05275 -15.3863 -0 0 18.34782 -19.47966 10.17097 10.0902 5.469124 -15.92114 -4.831634 -86.00115 26.51792 11.45422 0 0 -13.81247 -3.976228 7.558732 15.76536
39.8854 106.4514 320.2937 2.802884 -9.326882 7.213594 -0.4781801 -15.54489 2.938592 -0 42.88846 -0 3.290806 -7.152019 -8.787357 -5.630928 9.345214 -10.68979 -0 16.68634 -0 -7.998465 -17.87736 14.95458 -1.767733 0.74792 2.50189 -0.3952703 8.068891 -6.650712 2.255379 23.64791 5.455014 0.8800469 -15.22744 8.307967 -0.6415256 -15.54371 8.577919 89.58705 20.09954 -16.81765 -0 0 17.31915 -18.74543 9.981677 9.650613 5.960211 -16.83611 -5.216849 -84.00256 26.94488 7.911014 0 0 -15.47366 -3.396163 8.0831 14.76971
40.72437 105.531 326.2995 3.040663 -8.802153 8.471915 -1.244166 -19.56854 3.133226 -0 33.54079 -0 2.05928 -6.93896 -9.686426 -5.615222 12.93357 -10.8408 -0 15.88766 -0 -7.821086 -19.52867 14.17553 -2.031551 0.4780798 1.923279 0.0502452 7.84224 -7.40295 2.590166 23.63709 5.236695 0.9370078 -15.29356 8.417057 -1.336259 -14.35502 7.983937 90.18046 20.10918 -18.47034 -0 0 15.65861 -17.9163 9.775263 8.910583 6.446958 -17.66823 -5.22878 -82.18704 27.20724 4.656299 0 0 -17.1926 -2.63542 8.691152 13.6329
41.41523 104.1242 331.917 3.30237 -7.778723 8.720838 -1.957297 -22.22489 2.268789 -0 23.45198 -0 0.6798182 -7.783515 -10.18601 -5.859955 15.64987 -10.4989 -0 15.7388 -0 -7.707378 -21.00848 13.5153 -2.366858 0.4265742 1.96383 0.3125409 7.220924 -7.49345 2.881572 23.43797 4.957213 0.9838917 -15.50396 8.391046 -1.739114 -13.5973 7.824475 90.57321 20.21685 -19.58924 -0 0 13.73442 -16.98256 9.614685 8.001814 6.918115 -18.72727 -5.059481 -80.47339 27.31225 1.620046 0 0 -18.81027 -1.731549 9.317659 12.46615
41.90162 102.8459 337.5958 3.332 -7.063001 8.516133 -1.411148 -24.54153 1.423648 -0 16.69462 -0 -0.4755968 -9.002708 -10.13602 -5.891062 17.88677 -9.980258 -0 16.89487 -0 -7.822142 -21.74091 13.00397 -2.538888 0.965653 2.174675 0.6412989 6.931068 -7.188029 3.014758 23.29873 4.614637 0.9668852 -15.79513 8.142002 -1.504092 -12.69939 7.936675 91.17861 20.37046 -20.68667 -0 0 11.20744 -15.89875 9.518147 6.890387 7.196415 -19.85534 -4.614942 -79.0948 27.28201 -0.8039773 0 0 -20.06157 -0.7667375 9.89531 11.35745
42.11689 101.7766 344.092 2.987357 -7.145471 9.549126 -0.6883725 -25.63045 1.838013 -0 16.37291 -0 -1.364628 -9.338217 -9.950132 -4.777522 20.16212 -9.780231 -0 19.88587 -0 -8.190754 -21.26622 12.73432 -2.34329 0.8895199 2.138452 1.127221 6.587494 -6.912165 3.22284 23.26491 4.388571 0.999364 -16.24841 8.107054 -0.8027348 -11.58639 7.88993 92.14664 20.48863 -21.96248 -0 0 8.386284 -14.59322 9.527487 5.689673 6.948094 -20.64439 -4.049722 -78.56041 27.24249 -2.145849 0 0 -20.72095 0.1257572 10.38366 10.39679
42.40023 101.1683 350.8494 2.63097 -6.837488 10.31552 0.8961255 -24.12397 2.631396 -0 18.35378 -0 -2.043421 -8.826562 -9.700962 -3.705409 21.11051 -9.492307 -0 24.5555 -0 -8.768684 -19.3456 12.86827 -2.085313 0.534496 1.764672 1.433604 6.38158 -6.798033 3.295253 23.35865 4.115792 0.9785543 -16.65661 7.885248 -0.3757707 -10.98529 7.801924 92.85265 20.65376 -22.48675 -0 0 6.367679 -13.50986 9.546278 4.867565 6.888794 -20.72371 -3.439567 -78.77098 27.23882 -2.269968 0 0 -20.81389 0.9370488 10.80574 9.627778
42.62534 101.12 358.1455 1.963945 -7.059289 10.67241 2.488685 -21.36922 3.897107 -0 20.82795 -0 -2.763335 -8.343943 -9.25012 -2.775919 20.95247 -9.252553 -0 31.70231 -0 -9.303138 -16.22542 13.81317 -1.610957 -0.1056443 1.472764 1.618912 6.367196 -6.676464 3.482522 23.55306 3.722421 1.038946 -17.06637 7.593266 -0.3054811 -10.69802 7.764743 93.35165 20.8563 -22.37534 -0 0 5.264915 -12.53618 9.628755 4.318298 6.845881 -20.03896 -2.83639 -79.88739 27.36536 -1.138391 0 0 -20.20135 1.515666 11.15689 9.120809
42.8748 101.9038 365.6716 1.652311 -8.538813 9.925013 3.724512 -16.84871 5.122849 -0 23.25335 -0 -3.766317 -8.698283 -8.58408 -1.684151 17.62462 -9.292887 -0 40.38918 -0 -9.032513 -14.04244 15.64896 -1.347591 0.126927 1.812543 1.755437 6.994039 -6.223842 3.513341 24.23523 3.573493 1.040247 -17.20764 7.492158 -0.1294431 -10.93987 7.826872 93.28592 21.13001 -21.58521 -0 0 4.953407 -11.93864 9.68807 4.156556 6.503005 -19.18744 -2.353224 -81.52236 27.53571 0.82241 0 0 -18.82328 1.825097 11.46597 8.884846
43.13266 102.8326 372.5608 1.519652 -10.38712 9.186823 5.127709 -11.66901 5.548387 -0 24.03804 -0 -4.48277 -9.877484 -8.311868 -1.938602 12.335 -8.641196 -0 48.31636 -0 -8.883837 -11.76268 17.49352 -1.333709 0.8646379 2.273374 1.868693 7.692253 -5.957682 3.600119 25.06622 3.458829 1.068711 -17.09917 7.494721 -0.05037752 -11.90703 7.890011 92.53492 21.50488 -20.01198 -0 0 5.328596 -11.80016 9.698239 4.359156 6.015758 -18.50224 -2.169873 -83.37397 27.68627 3.059808 0 0 -16.94356 1.886043 11.73553 8.869971
43.52887 104.195 379.397 1.69284 -11.17744 8.761995 5.464502 -5.932706 5.775221 -0 23.06343 -0 -4.967821 -10.96623 -7.871752 -2.482539 8.035428 -7.941701 -0 56.34742 -0 -8.798203 -9.512914 19.33654 -1.676509 0.7024251 3.121669 1.820965 8.147384 -5.427425 3.84671 25.71595 3.222624 1.179452 -17.05649 7.477631 -0.09638239 -12.79634 8.094373 91.40538 21.86196 -18.31498 -0 0 5.908308 -12.14345 9.665388 4.863082 5.45529 -17.76432 -2.023606 -85.66245 27.76172 5.723457 0 0 -14.7766 1.784174 11.96125 8.978843
43.85516 105.6976 385.1201 2.388179 -11.94279 8.434353 4.997876 -0.230579 5.575928 -0 20.65503 -0 -5.195985 -11.60906 -7.130206 -2.858363 1.218692 -7.669808 -0 59.24706 -0 -8.199599 -8.184394 20.40189 -2.396858 1.53159 4.04379 1.579051 8.552451 -4.701013 4.034782 26.20524 2.981416 1.260564 -17.0143 7.385558 -0.1857366 -13.36332 8.493987 90.59091 21.9943 -16.63636 -0 0 6.643095 -12.78948 9.526456 5.666745 5.262948 -17.66496 -1.940357 -87.62988 27.64221 8.044078 0 0 -12.93593 1.738446 12.16952 8.973613
44.24882 106.8 390.5721 2.588002 -11.77641 7.758902 4.573907 4.696181 5.161864 -0 17.42956 -0 -5.40322 -12.047 -6.058156 -3.232618 -4.793835 -7.491835 -0 56.09842 -0 -7.497967 -7.745499 20.935 -2.784992 1.77431 4.74807 1.219235 8.471528 -3.822921 4.102919 26.37961 2.823821 1.282921 -17.06601 7.280801 -0.7263448 -14.26164 8.789205 89.22601 22.01654 -14.52191 -0 0 8.105922 -13.84705 9.311956 6.930317 5.450212 -17.19825 -1.622803 -89.75116 27.36135 10.83389 0 0 -11.12674 1.712366 12.4129 8.947763
44.66408 107.0924 396.0001 2.337808 -11.23069 6.889986 4.504614 8.984638 4.463215 -0 14.67493 -0 -5.842044 -12.67488 -4.843334 -2.666939 -10.31043 -7.275685 -0 47.45395 -0 -6.680353 -8.324469 21.59089 -2.66146 1.729597 5.13753 1.078938 7.860574 -3.009734 3.695217 26.47659 2.967135 1.080179 -17.11435 7.110998 -0.9551426 -16.20919 8.966244 87.14262 21.84464 -11.39913 -0 0 11.00191 -15.23947 8.963952 9.055988 5.714441 -16.54776 -1.241117 -91.7678 26.88994 13.7562 0 0 -9.353565 1.754032 12.66818 8.877601
45.03233 106.3956 401.3623 1.554425 -10.52362 6.530382 5.034258 13.16592 3.494482 -0 13.26592 -0 -6.511306 -13.38411 -3.52243 -1.123079 -15.51978 -5.960807 -0 34.52177 -0 -6.242102 -8.960778 23.07164 -2.205931 1.627738 4.987035 0.9441018 7.425654 -2.576502 3.329737 26.19921 3.18786 0.9294553 -17.47564 7.054977 -1.631877 -17.41766 8.843033 85.54089 21.40197 -8.88338 -0 0 13.89137 -16.57702 8.491591 11.23316 6.165917 -15.89298 -0.8647482 -93.45685 26.31001 16.51269 0 0 -7.624067 1.908083 12.95855 8.742515
45.7413 105.5705 406.77 0.890759 -9.379375 5.905631 4.93282 16.19371 2.933191 -0 11.8787 -0 -7.04828 -14.39043 -1.848707 0.328267 -18.25394 -5.916637 -0 25.08482 -0 -5.567879 -8.494261 23.63722 -1.741943 1.631053 4.853366 0.6533519 6.901013 -2.131233 3.045901 25.7071 3.497197 0.8787615 -18.35045 7.143153 -2.209024 -18.54993 8.826015 84.13361 20.83347 -6.661445 -0 0 16.2671 -17.87841 7.922465 13.1987 6.225407 -15.46966 -0.6633724 -94.7971 25.7177 19.00597 0 0 -5.696705 1.933948 13.23171 8.742853
46.52997 104.3403 411.7654 0.4173711 -8.450936 5.253759 4.75233 18.79211 1.784717 -0 11.53171 -0 -7.359625 -15.11291 -0.3551954 0.7174471 -20.72855 -6.182262 -0 16.26206 -0 -4.77259 -8.418724 23.20545 -1.246096 1.872202 4.781245 0.3731035 6.342739 -1.788481 2.72595 25.4646 3.924401 0.8810867 -19.19468 7.301825 -2.605866 -19.94052 8.891786 82.77098 20.16338 -4.525888 -0 0 18.37351 -19.27406 7.234844 15.09274 5.923251 -15.31988 -0.7909894 -95.8414 25.13555 21.0102 0 0 -3.75351 1.969798 13.51224 8.774581
47.4478 103.3457 417.4085 0.08659368 -8.032496 4.478336 4.243251 20.9258 0.9757329 -0 12.98109 -0 -7.430179 -14.71658 0.8487102 -0.3945078 -22.33611 -7.421754 -0 11.15549 -0 -4.09716 -8.117679 22.53706 -1.137174 1.878901 4.81461 0.06502908 6.456727 -1.641955 2.66488 25.37203 4.338836 1.107759 -19.97657 7.622479 -3.067635 -20.51042 8.690534 82.54407 19.51601 -3.516831 -0 0 19.5291 -20.3896 6.534523 16.5213 5.596548 -14.99887 -0.9367328 -96.75538 24.56698 22.83742 0 0 -1.76991 2.022861 13.79919 8.872537
